<svg width="25" height="24" viewBox="0 0 25 24" fill="none" xmlns="http://www.w3.org/2000/svg">
<path d="M22.7751 0H1.4251C0.693098 0 0.100098 0.593 0.100098 1.325V22.676C0.100098 23.407 0.693098 24 1.4251 24H12.9201V14.706H9.7921V11.084H12.9201V8.413C12.9201 5.313 14.8131 3.625 17.5791 3.625C18.9041 3.625 20.0421 3.724 20.3741 3.768V7.008L18.4561 7.009C16.9521 7.009 16.6611 7.724 16.6611 8.772V11.085H20.2481L19.7811 14.707H16.6611V24H22.7771C23.5071 24 24.1001 23.407 24.1001 22.675V1.325C24.1001 0.593 23.5071 0 22.7751 0Z" fill="#FEFCF7"/>
</svg>
