<svg width="25" height="20" viewBox="0 0 25 20" fill="none" xmlns="http://www.w3.org/2000/svg">
<path d="M24.1001 2.55705C23.2171 2.94905 22.2681 3.21305 21.2721 3.33205C22.2891 2.72305 23.0701 1.75805 23.4371 0.608047C22.4861 1.17205 21.4321 1.58205 20.3101 1.80305C19.4131 0.846047 18.1321 0.248047 16.7161 0.248047C13.5371 0.248047 11.2011 3.21405 11.9191 6.29305C7.8281 6.08805 4.2001 4.12805 1.7711 1.14905C0.481098 3.36205 1.1021 6.25705 3.2941 7.72305C2.4881 7.69705 1.7281 7.47605 1.0651 7.10705C1.0111 9.38805 2.6461 11.522 5.0141 11.997C4.3211 12.185 3.5621 12.229 2.7901 12.081C3.4161 14.037 5.2341 15.46 7.3901 15.5C5.3201 17.123 2.7121 17.848 0.100098 17.54C2.2791 18.937 4.8681 19.752 7.6481 19.752C16.7901 19.752 21.9551 12.031 21.6431 5.10605C22.6051 4.41105 23.4401 3.54405 24.1001 2.55705Z" fill="#FEFCF7"/>
</svg>
