<svg width="25" height="24" viewBox="0 0 25 24" fill="none" xmlns="http://www.w3.org/2000/svg">
<path fill-rule="evenodd" clip-rule="evenodd" d="M12.1001 0C8.8411 0 8.4331 0.014 7.1531 0.072C2.7951 0.272 0.373098 2.69 0.173098 7.052C0.114098 8.333 0.100098 8.741 0.100098 12C0.100098 15.259 0.114098 15.668 0.172098 16.948C0.372098 21.306 2.7901 23.728 7.1521 23.928C8.4331 23.986 8.8411 24 12.1001 24C15.3591 24 15.7681 23.986 17.0481 23.928C21.4021 23.728 23.8301 21.31 24.0271 16.948C24.0861 15.668 24.1001 15.259 24.1001 12C24.1001 8.741 24.0861 8.333 24.0281 7.053C23.8321 2.699 21.4111 0.273 17.0491 0.073C15.7681 0.014 15.3591 0 12.1001 0ZM12.1001 2.163C15.3041 2.163 15.6841 2.175 16.9501 2.233C20.2021 2.381 21.7211 3.924 21.8691 7.152C21.9271 8.417 21.9381 8.797 21.9381 12.001C21.9381 15.206 21.9261 15.585 21.8691 16.85C21.7201 20.075 20.2051 21.621 16.9501 21.769C15.6841 21.827 15.3061 21.839 12.1001 21.839C8.8961 21.839 8.5161 21.827 7.2511 21.769C3.9911 21.62 2.4801 20.07 2.3321 16.849C2.2741 15.584 2.2621 15.205 2.2621 12C2.2621 8.796 2.2751 8.417 2.3321 7.151C2.4811 3.924 3.9961 2.38 7.2511 2.232C8.5171 2.175 8.8961 2.163 12.1001 2.163ZM5.9381 12C5.9381 8.597 8.6971 5.838 12.1001 5.838C15.5031 5.838 18.2621 8.597 18.2621 12C18.2621 15.404 15.5031 18.163 12.1001 18.163C8.6971 18.163 5.9381 15.403 5.9381 12ZM12.1001 16C9.8911 16 8.1001 14.21 8.1001 12C8.1001 9.791 9.8911 8 12.1001 8C14.3091 8 16.1001 9.791 16.1001 12C16.1001 14.21 14.3091 16 12.1001 16ZM17.0651 5.595C17.0651 4.8 17.7101 4.155 18.5061 4.155C19.3011 4.155 19.9451 4.8 19.9451 5.595C19.9451 6.39 19.3011 7.035 18.5061 7.035C17.7101 7.035 17.0651 6.39 17.0651 5.595Z" fill="#FEFCF7"/>
</svg>
